<svg width="397" height="321" viewBox="0 0 397 321" xmlns="http://www.w3.org/2000/svg" xmlns:xlink="http://www.w3.org/1999/xlink">
    <defs>
        <path id="1vmp70zrda" d="M0 0h397v320H0z"/>
    </defs>
    <g transform="translate(0 .098)" fill="none" fill-rule="evenodd">
        <mask id="ewpeoevirb" fill="#fff">
            <use xlink:href="#1vmp70zrda"/>
        </mask>
        <path d="M225.147 105.355v.509a34.145 34.145 0 0 1-.216 1.83v.216c-.107.695-.254 1.43-.41 2.174-.04.196-.079.391-.128.578a.37.37 0 0 1 0 .146 57.499 57.499 0 0 1-.46 1.87c0 .147-.059.275-.108.412-.215.812-.47 1.645-.754 2.516l-.195.607c-.255.744-.52 1.498-.754 2.252a21.27 21.27 0 0 1-.216.558c-.342.92-.714 1.87-1.115 2.84-.079.196-.177.401-.255.597-.352.832-.754 1.684-1.116 2.546-.108.235-.206.46-.313.685-.49 1.038-.989 2.096-1.498 3.182l-.274.52c-.47.94-.98 1.909-1.498 2.888-.147.274-.284.528-.43.803a196.034 196.034 0 0 1-1.959 3.505l-.195.333c-.637 1.096-1.302 2.252-1.997 3.348-.177.294-.363.598-.549.891a205.077 205.077 0 0 1-5.041 7.765l-.676.989a282.114 282.114 0 0 1-2.672 3.819l-.215.313c-.999 1.38-2.037 2.79-3.104 4.22l-.323.44-.323-.44a349.003 349.003 0 0 1-3.103-4.22l-.215-.313a231.489 231.489 0 0 1-2.673-3.82l-.675-.988a130.034 130.034 0 0 1-5.218-7.755l-.548-.9a166.47 166.47 0 0 1-1.997-3.34l-.196-.332a196.037 196.037 0 0 1-1.958-3.506l-.43-.802c-.52-.98-1.029-1.949-1.499-2.889l-.264-.529a91.207 91.207 0 0 1-1.508-3.172c-.097-.225-.195-.45-.303-.685-.392-.862-.754-1.714-1.116-2.546a11.274 11.274 0 0 1-.255-.607c-.4-.96-.783-1.91-1.125-2.84l-.206-.548a29.154 29.154 0 0 1-.754-2.262l-.205-.607a69.662 69.662 0 0 1-.754-2.506l-.108-.412a57.496 57.496 0 0 1-.46-1.87v-.147c-.039-.196-.088-.382-.127-.577a47.996 47.996 0 0 1-.401-2.174v-.225a45.624 45.624 0 0 1-.216-1.821c0-.177 0-.343-.039-.51a24.317 24.317 0 0 1-.088-1.84c0-1.009 0-1.988.068-2.928 0-.333.05-.646.06-.97.038-.597.068-1.204.126-1.781 0-.363.089-.744.128-1.068.058-.509.098-1.028.176-1.507.049-.363.117-.696.176-1.038.069-.47.147-.93.235-1.39.078-.451.147-.676.225-1.01.088-.342.176-.841.284-1.243.098-.41.186-.656.274-.989.088-.333.216-.754.323-1.126.118-.372.216-.626.323-.93.108-.313.245-.705.372-1.038.128-.333.235-.577.353-.871.127-.294.274-.656.42-.96.138-.293.265-.538.392-.803.128-.274.294-.607.44-.88.148-.285.285-.51.432-.755.156-.235.313-.548.48-.803.166-.254.303-.47.45-.695.156-.235.332-.509.509-.754.176-.244.323-.43.48-.636.156-.216.352-.47.528-.676l.509-.587c.176-.216.362-.421.548-.617.186-.196.353-.362.529-.539l.558-.548c.186-.176.362-.333.548-.49l.568-.499.558-.44.577-.441c.196-.147.382-.274.578-.401l.578-.402.577-.352.587-.353.568-.303.588-.314.567-.274.44-.284c.187-.098.383-.157.569-.245l.567-.235.558-.195.558-.196.539-.177.538-.166.52-.137.528-.137.499-.127.5-.108.479-.088c.157 0 .313-.069.47-.088l.45-.079.45-.068.412-.05.401-.048.392-.04.372-.038H200.135l.372.039.382.039.41.049.412.049.45.068.44.079c.167 0 .324.058.48.088l.48.088.49.108.509.127.528.137.52.137.538.166.548.177.548.196.558.195.568.235c.186.088.372.147.568.245l.577.265.578.274.577.303.578.314.587.352.568.352c.206.128.392.265.587.402.196.127.382.255.568.392l.578.45.567.44.558.49c.186.167.372.323.549.49.186.176.381.372.567.558.186.186.353.343.53.538.166.186.361.402.547.607l.51.588c.176.215.342.45.518.676.186.234.323.42.49.646.156.225.333.48.499.744.166.264.313.46.46.705.137.235.313.529.47.803.157.264.294.49.44.754.137.254.294.577.431.871.147.294.274.529.411.813.128.284.265.636.402.96.137.313.244.567.362.87.117.294.245.686.362 1.029.127.352.225.617.323.94.108.323.225.744.323 1.126.108.372.196.646.284.979.078.343.186.832.284 1.253.098.421.157.666.225 1.009.069.342.157.92.235 1.38.059.353.118.686.167 1.048.068.49.127 1.008.186 1.498.039.362.088.715.117 1.077.059.578.088 1.185.127 1.782 0 .323.05.627.059.97.049.94.069 1.919.069 2.917 0 .588 0 1.205-.079 1.841l.02.02zm98.844 5.453c-17.269 53.236-33.794 100.675-45.286 127.718l-.274-.215c-.891-.685-1.821-1.39-2.751-2.105l-.862-.676-3.181-2.516-.539-.43c-.959-.765-1.918-1.558-2.907-2.36l-.97-.794c-1.135-.94-2.25-1.89-3.465-2.878l-.646-.549a528.544 528.544 0 0 1-3.123-2.673l-.979-.842a1679.906 1679.906 0 0 1-3.759-3.26l-.744-.647a483.258 483.258 0 0 0-3.318-3.005l-.98-.891a421.332 421.332 0 0 1-3.944-3.633l-.216-.215a321.709 321.709 0 0 0 24.787-35.024c.117-.215.245-.421.372-.627.538-.9 1.067-1.801 1.596-2.712.753-1.273 1.468-2.536 2.163-3.76 12.844-23.156 18.022-42.073 19.413-56.691v-.333c0-.284 0-.558.058-.833.05-.48.088-.969.118-1.449.03-.47.058-.89.068-1.341.02-.45.059-1.018.079-1.498 0-1.009.058-2.007.058-3.006 0-41.956-18.365-66.67-33.803-80.025A97.157 97.157 0 0 0 198.617 0h-.372l-1.997.04c-.685 0-1.36 0-2.046.058-.685.068-1.448.098-2.163.157-.724.049-1.38.088-2.066.146-.695.06-1.439.177-2.153.255-.705.088-1.37.157-2.066.255-.685.098-1.41.225-2.114.342-.705.118-1.39.206-2.076.343a78.33 78.33 0 0 0-2.075.44c-.695.147-1.4.275-2.095.431-.685.157-1.36.353-2.046.53-.685.166-1.39.342-2.075.528-.686.196-1.332.411-2.007.607-.666.206-1.39.411-2.076.636-.695.226-1.311.46-1.957.696-.646.225-1.39.47-2.076.744a94.49 94.49 0 0 1-1.909.754c-.636.244-1.38.538-2.055.822-.686.294-1.254.578-1.88.852-.627.274-1.351.597-2.017.92-.656.314-1.223.617-1.83.92-.607.314-1.332.657-1.988 1.01-.646.352-1.164.655-1.762.988-.597.333-1.311.754-1.967 1.107l-1.713 1.057c-.637.401-1.283.793-1.92 1.195-.626.41-1.125.754-1.693 1.165-.558.411-1.233.822-1.82 1.243-.598.431-1.263.95-1.89 1.42-.626.48-1.028.754-1.498 1.165a96.663 96.663 0 0 0-3.289 2.712c-15.399 13.356-33.793 38.069-33.793 80.025 0 .989 0 1.997.059 3.006 0 .49.039.998.068 1.498.03.5.05.9.079 1.341.029.45.078.97.107 1.45 0 .274.04.548.069.832v.333c1.507 15.46 7.166 35.64 21.625 60.559.509.861 1.008 1.713 1.507 2.565l.48.813a319.956 319.956 0 0 0 24.708 34.935l-.195.196a426.763 426.763 0 0 1-4.014 3.701l-.842.754a465.009 465.009 0 0 1-3.524 3.163l-.558.5c-1.302 1.145-2.585 2.251-3.847 3.358l-.813.705a191.84 191.84 0 0 1-3.377 2.878l-.44.372c-1.225 1.038-2.419 2.027-3.594 3.006l-.792.656-3.143 2.536-.362.294a329.414 329.414 0 0 1-3.24 2.565l-.842.646c-.92.715-1.811 1.4-2.683 2.066l-.352.275c-11.444-27.054-28.037-74.493-45.286-127.718H0c4.503 14.109 9.212 28.825 14.048 43.493 13.793 41.858 25.726 75.344 35.457 99.558 6.216 15.43 11.542 27.16 16.28 35.836C70.298 297.999 82.358 320 106.675 320c11.562 0 25.022-4.338 53.078-25.497a368.028 368.028 0 0 0 6.09-4.7l1.644-1.302c1.772-1.42 3.563-2.859 5.355-4.318l.93-.754a322.873 322.873 0 0 0 6.216-5.258l1.567-1.34c1.722-1.499 3.455-3.007 5.188-4.505l1.331-1.165c2.076-1.85 4.151-3.72 6.236-5.63l1.351-1.244c.95-.88 1.9-1.772 2.839-2.663l2.82 2.634 1.4 1.292c2.065 1.88 4.13 3.74 6.186 5.582l1.44 1.282a338.284 338.284 0 0 0 5.05 4.406l1.665 1.42a466.88 466.88 0 0 0 6.167 5.17l.999.803a314.37 314.37 0 0 0 5.257 4.259l1.683 1.332a329.796 329.796 0 0 0 6.08 4.69c28.046 21.159 41.507 25.496 53.078 25.496 24.317 0 36.348-21.991 40.89-30.265 4.738-8.675 10.064-20.395 16.27-35.836 9.77-24.204 21.674-57.7 35.467-99.548A4093.124 4093.124 0 0 0 397 110.838l-73.01-.03z" fill="#533598" mask="url(#ewpeoevirb)"/>
    </g>
</svg>
