<svg width="64" height="64" viewBox="0 0 64 64" fill="none" xmlns="http://www.w3.org/2000/svg">
  <rect width="64" height="64" rx="14" fill="#0F172A"/>
  <path d="M17 14.5C16.4 15.2 16 16.3 16 17.7V46.3C16 47.7 16.4 48.8 17 49.5L33.1 33.4L17 14.5Z" fill="#00D7FF"/>
  <path d="M38.6 38.8L22.3 48.1C21 48.8 19.8 48.9 18.8 48.4L34.9 32.3L38.6 38.8Z" fill="#7C63FF"/>
  <path d="M38.6 25.2L34.9 31.7L18.8 15.6C19.8 15.1 21 15.2 22.3 15.9L38.6 25.2Z" fill="#34D399"/>
  <path d="M48 30.2C49.3 30.9 50 31.8 50 32C50 32.2 49.3 33.1 48 33.8L38.6 38.8L34.9 32.3L38.6 25.2L48 30.2Z" fill="#FBBF24"/>
</svg>
